<?xml version="1.0" standalone="no"?><!DOCTYPE svg PUBLIC "-//W3C//DTD SVG 1.1//EN" "http://www.w3.org/Graphics/SVG/1.1/DTD/svg11.dtd"><svg t="1718174164743" class="icon" viewBox="0 0 1024 1024" version="1.1" xmlns="http://www.w3.org/2000/svg" p-id="2571" xmlns:xlink="http://www.w3.org/1999/xlink" width="1024" height="1024"><path d="M863.07999969 243.99999969l-31.99999969 576.40000031a151.99999969 151.99999969 0 0 1-151.8 143.59999969H346.32000031a151.99999969 151.99999969 0 0 1-151.76000062-143.59999969l-31.99999969-576.40000031H72.00000031a31.99999969 31.99999969 0 1 1 0-63.99999938h879.99999938a31.99999969 31.99999969 0 1 1 0 63.99999938h-88.92z m-636.43999969 0l31.8 572.88A88.00000031 88.00000031 0 0 0 346.32000031 900.00000031h332.95999969a88.00000031 88.00000031 0 0 0 87.88000031-83.12000062L798.96000031 243.99999969H226.64zM392 123.99999969h240a31.99999969 31.99999969 0 1 0 0-63.99999938H392a31.99999969 31.99999969 0 1 0 0 63.99999938z" p-id="2572" fill="#ffffff"></path><path d="M400.80000031 432.00000031v256.11999938a31.99999969 31.99999969 0 0 0 63.99999938 0V432.00000031a31.99999969 31.99999969 0 1 0-63.99999938 0zM560.79999969 432.00000031v256.11999938a31.99999969 31.99999969 0 1 0 64.00000031 0V432.00000031a31.99999969 31.99999969 0 1 0-64.00000031 0z" p-id="2573" fill="#ffffff"></path></svg>